<svg width="32" height="32" viewBox="0 0 256 256" fill="none" xmlns="http://www.w3.org/2000/svg">
<path fill-rule="evenodd" clip-rule="evenodd" d="M128.077 137.342C118.655 137.382 110.986 130.031 110.939 120.915C110.892 111.8 118.485 104.384 127.906 104.344C137.328 104.304 144.997 111.655 145.044 120.771C145.091 129.887 137.498 137.302 128.077 137.342ZM127.684 61.2875C94.7212 61.4271 68.1337 87.3943 68.2986 119.287C68.4634 151.18 128.537 226.279 128.537 226.279C128.537 226.279 187.831 150.675 187.666 118.782C187.501 86.889 160.646 61.148 127.684 61.2875Z" fill="#3B82F6"/>
<rect x="8" y="84" width="24" height="172" rx="12" fill="black"/>
<rect x="248" y="232" width="24" height="236" rx="12" transform="rotate(90 248 232)" fill="black"/>
<rect x="224" y="84" width="24" height="172" rx="12" fill="black"/>
<path d="M201.168 9.44385H187.847C184.168 9.44385 181.186 12.3274 181.186 15.8843V54.5274C181.186 58.0843 184.168 60.9679 187.847 60.9679H201.168C204.847 60.9679 207.829 58.0843 207.829 54.5274V15.8843C207.829 12.3274 204.847 9.44385 201.168 9.44385Z" fill="black"/>
<path d="M8 104.59C8 108.028 8 109.747 9.12037 110.277C10.2406 110.807 11.6438 109.752 14.4502 107.641L111.539 34.6262C119.398 28.7168 123.327 25.762 127.897 25.762C132.468 25.762 136.397 28.7168 144.255 34.6262L241.344 107.641C244.151 109.752 245.554 110.807 246.674 110.277C247.795 109.747 247.795 108.028 247.795 104.59V99.3298C247.795 93.1418 247.795 90.0477 246.44 87.3698C245.085 84.6918 242.559 82.7932 237.509 78.9946L144.255 8.86419C136.397 2.95477 132.468 0 127.897 0C123.327 0 119.398 2.95477 111.539 8.86419L18.2861 78.9946C13.2348 82.7932 10.7093 84.6918 9.35457 87.3698C8 90.0477 8 93.1418 8 99.3298V104.59Z" fill="black"/>
</svg>
