<svg width="25" height="25" viewBox="0 0 25 15" fill="none" xmlns="http://www.w3.org/2000/svg">
<path d="M1.875 15C1.375 15 0.9375 14.8125 0.5625 14.4375C0.1875 14.0625 0 13.625 0 13.125V1.875C0 1.39583 0.1875 0.963542 0.5625 0.578125C0.9375 0.192708 1.375 0 1.875 0H23.125C23.625 0 24.0625 0.192708 24.4375 0.578125C24.8125 0.963542 25 1.39583 25 1.875V13.125C25 13.625 24.8125 14.0625 24.4375 14.4375C24.0625 14.8125 23.625 15 23.125 15H1.875ZM1.875 13.125H23.125V1.875H19.0625V7.5H17.1875V1.875H13.4375V7.5H11.5625V1.875H7.8125V7.5H5.9375V1.875H1.875V13.125ZM5.9375 7.5H7.8125H5.9375ZM11.5625 7.5H13.4375H11.5625ZM17.1875 7.5H19.0625H17.1875Z" fill="#EA973E"/>
</svg>
